# xmcd CD database file generated by OrangeCD 5.1
#
# Track frame offsets:
#	150
#	15673
#	34605
#	43998
#	58171
#	71666
#	83100
#	97332
#	111838
#	135850
#	151324
#	169190
#	184691
#	203805
#	218346
#	235462
#	254175
#	267075
#	280092
#	293983
#	313558
#	335995
#
# Disc length: 4782 seconds
#
# Revision: 4
# Processed by: cddbd v1.4PL0 Copyright (c) Steve Scherf et al.
# Submitted via: OrangeCD 5.1
#
DISCID=4e12ac16
DTITLE=Hopkins, Lightnin' - Fishing Clothes - The Jewel Recordings 1965 - 1969 
DTITLE=[CDTwo)
DYEAR=2001
DGENRE=Blues
TTITLE0=Walk Me
TTITLE1=Little School Girl
TTITLE2=Let Me Play with Your Poodle
TTITLE3=Katie Mae
TTITLE4=Little Boy Blue
TTITLE5=Pneumonia Blues
TTITLE6=Sail On, Little Girl
TTITLE7=West Texas Blues
TTITLE8=A Death in the Family
TTITLE9=Huntin' in the Morning
TTITLE10=Letter to My Back Door Friend
TTITLE11=Love Me This Morning
TTITLE12=Ride in Your New Automobile
TTITLE13=Breakfast Time
TTITLE14=You're Too Fast
TTITLE15=Daddy was a Preacher
TTITLE16=I Hate I Got Married
TTITLE17=I'm Coming Home
TTITLE18=Jail House Blues
TTITLE19=Lovin' Arms
TTITLE20=Rock Me, Mama
TTITLE21=Mr. Charlie, parts 1 and 2
EXTD=YEAR: 2001
EXTT0=
EXTT1=
EXTT2=
EXTT3=
EXTT4=
EXTT5=
EXTT6=
EXTT7=
EXTT8=
EXTT9=
EXTT10=
EXTT11=
EXTT12=
EXTT13=
EXTT14=
EXTT15=
EXTT16=
EXTT17=
EXTT18=
EXTT19=
EXTT20=
EXTT21=
PLAYORDER=
